# This file uses centimeters as units for non-parametric coordinates.

mtllib Blue_Mitochondria_Film.mtl
g default
v -1.835684 0.789056 2.171529
v -2.683383 0.789056 2.215745
v -2.767572 0.789056 2.834641
v -2.578178 0.789056 3.367963
v -1.832570 0.789056 3.378284
v -0.888177 0.789056 3.449585
v 0.014840 0.789056 3.458038
v 0.468068 0.789056 3.692076
v -0.323096 0.789056 3.857962
v -1.386899 0.789056 3.916972
v -2.156392 0.789056 4.332019
v -2.070365 0.789056 4.842903
v -1.334524 0.789056 4.917118
v -0.583328 0.789056 4.767199
v -0.166377 0.789056 4.946758
v -0.486909 0.789056 5.209401
v -1.029179 0.789056 5.313950
v -1.567881 0.789056 5.490611
v -1.450636 0.789056 5.924361
v -1.051986 0.789056 6.264642
v -0.638488 0.789056 6.462123
v -0.394561 0.789056 6.270751
v -0.302367 0.789056 5.835224
v 0.064657 0.789056 6.222889
v 0.584318 0.789056 6.505028
v 1.165181 0.789056 6.178331
v 1.130178 0.789056 5.485458
v 0.598813 0.789056 4.975672
v 0.392958 0.789056 4.629348
v 0.663732 0.789056 4.564283
v 1.228599 0.789056 4.952207
v 1.897705 0.789056 5.439672
v 2.326083 0.789056 4.783455
v 2.470315 0.789056 3.816923
v 1.637636 0.789056 3.093455
v 0.791052 0.789056 2.811530
v 0.985946 0.789056 2.501970
v 1.612551 0.789056 2.620169
v 2.393761 0.789056 2.855970
v 2.677906 0.789056 2.201098
v 2.629224 0.789056 1.455358
v 1.747760 0.789056 1.010708
v 0.462919 0.789056 0.974366
v -0.684590 0.789056 0.818717
v -1.272282 0.789056 0.542426
v -1.077315 0.789056 0.251451
v -0.272562 0.789056 0.255851
v 0.979271 0.789056 0.457976
v 2.156640 0.789056 0.535045
v 2.778781 0.789056 0.045883
v 2.758256 0.789056 -0.977837
v 2.634097 0.789056 -1.959493
v 1.588254 0.789056 -2.342070
v 0.254642 0.789056 -2.220709
v -0.875165 0.789056 -2.290435
v -1.434321 0.789056 -2.644302
v -0.955334 0.789056 -2.955463
v 0.130812 0.789056 -2.959680
v 1.334346 0.789056 -2.935955
v 2.300705 0.789056 -3.022400
v 2.474250 0.789056 -3.605820
v 2.291417 0.789056 -4.377952
v 1.940516 0.789056 -5.149780
v 1.371045 0.789056 -5.483602
v 0.912728 0.789056 -5.177962
v 0.588653 0.789056 -5.080520
v 0.430670 0.789056 -5.298570
v 0.918681 0.789056 -5.934241
v 0.763753 0.789056 -6.536647
v 0.026633 0.789056 -6.641584
v -0.485183 0.789056 -6.315036
v -0.378333 0.789056 -5.670052
v -0.407419 0.789056 -5.234131
v -0.668870 0.789056 -5.322889
v -0.831831 0.789056 -5.806121
v -1.344060 0.789056 -5.908997
v -1.880119 0.789056 -5.373840
v -1.702459 0.789056 -4.621907
v -0.786932 0.789056 -4.335272
v -0.014784 0.789056 -4.097144
v 0.199979 0.789056 -3.792857
v -0.044586 0.789056 -3.622399
v -0.610645 0.789056 -3.637200
v -1.396215 0.789056 -3.973417
v -2.231527 0.789056 -4.032446
v -2.619008 0.789056 -3.506687
v -2.718454 0.789056 -2.759680
v -2.594667 0.789056 -1.973006
v -1.868978 0.789056 -1.449458
v -0.722691 0.789056 -1.247534
v 0.385805 0.789056 -1.118413
v 0.768827 0.789056 -0.778415
v 0.128242 0.789056 -0.675097
v -0.921874 0.789056 -0.762752
v -2.016484 0.789056 -0.936616
v -2.781861 0.789056 -0.689202
v -2.932267 0.789056 0.013741
v -2.904151 0.789056 0.785818
v -2.681658 0.789056 1.466954
v -1.879431 0.789056 1.728601
v -0.934225 0.789056 1.779428
v -0.177028 0.789056 1.850841
v -0.124220 0.789056 2.160734
v -0.871747 0.789056 2.203197
vt 0.845724 0.081036
vt 0.920733 0.130952
vt 0.728564 0.118116
vt 0.238903 0.077162
vt 0.259432 0.044169
vt 0.333229 0.090600
vt 0.329236 0.018285
vt 0.932583 0.277566
vt 0.982337 0.327379
vt 0.795794 0.295503
vt 0.043579 0.326265
vt 0.028838 0.279189
vt 0.192011 0.329629
vt 0.428180 0.098552
vt 0.401639 0.003264
vt 0.444350 0.017820
vt 0.460493 0.050949
vt 0.062001 0.238622
vt 0.192556 0.237836
vt 0.360795 0.327220
vt 0.357919 0.232413
vt 0.516036 0.231770
vt 0.491687 0.330450
vt 0.150918 0.126430
vt 0.279764 0.120785
vt 0.135855 0.165290
vt 0.270593 0.196861
vt 0.411297 0.132188
vt 0.456864 0.201350
vt 0.484305 0.118530
vt 0.595396 0.213968
vt 0.945988 0.204471
vt 0.800186 0.259502
vt 0.629657 0.147623
vt 0.651950 0.280947
vt 0.582244 0.142674
vt 0.973813 0.384104
vt 0.819469 0.417927
vt 0.686076 0.304493
vt 0.594494 0.420691
vt 0.916289 0.724706
vt 0.946677 0.769084
vt 0.747081 0.718130
vt 0.914663 0.827816
vt 0.647170 0.992018
vt 0.518101 1.000000
vt 0.674298 0.946196
vt 0.588848 0.897843
vt 0.428483 0.975161
vt 0.447192 0.926100
vt 0.442099 0.892942
vt 0.753507 0.911918
vt 0.673256 0.888669
vt 0.853220 0.886526
vt 0.717460 0.024850
vt 0.711331 0.077554
vt 0.615751 -0.000000
vt 0.524759 0.021461
vt 0.618289 0.116331
vt 0.482440 0.354022
vt 0.393566 0.432530
vt 0.349856 0.359454
vt 0.290662 0.453547
vt 0.184351 0.363320
vt 0.043881 0.383222
vt 0.004923 0.435033
vt 0.000000 0.493761
vt 0.026336 0.547231
vt 0.160353 0.566050
vt 0.352018 0.552825
vt 0.324801 0.475680
vt 0.465712 0.475345
vt 0.535893 0.546158
vt 0.684907 0.459970
vt 0.648059 0.554017
vt 0.891064 0.454108
vt 1.000000 0.491316
vt 0.996406 0.569186
vt 0.974666 0.643856
vt 0.791540 0.672956
vt 0.558025 0.663725
vt 0.580992 0.579879
vt 0.386895 0.589700
vt 0.360197 0.669029
vt 0.186181 0.605060
vt 0.262289 0.695946
vt 0.059113 0.644884
vt 0.037438 0.704722
vt 0.054851 0.761543
vt 0.122699 0.801535
vt 0.268961 0.797045
vt 0.346159 0.719614
vt 0.406514 0.771471
vt 0.536343 0.719935
vt 0.505631 0.770345
vt 0.548454 0.783311
vt 0.616510 0.881257
vt 0.510849 0.806457
vt 0.375646 0.824570
vt 0.396319 0.899693
vt 0.215338 0.846373
vt 0.184230 0.903569
vt 0.278094 0.944276
vt 0.367785 0.936450
vn 0.000000 1.000000 0.000000
vn 0.000000 1.000000 0.000000
vn 0.000000 1.000000 -0.000000
vn 0.000000 1.000000 0.000000
vn 0.000000 1.000000 0.000000
vn 0.000000 1.000000 0.000000
vn 0.000000 1.000000 0.000000
vn 0.000000 1.000000 0.000000
vn 0.000000 1.000000 0.000000
vn 0.000000 1.000000 -0.000000
vn 0.000000 1.000000 0.000000
vn 0.000000 1.000000 -0.000000
vn 0.000000 1.000000 -0.000000
vn 0.000000 1.000000 0.000000
vn 0.000000 1.000000 0.000000
vn 0.000000 1.000000 0.000000
vn 0.000000 1.000000 0.000000
vn 0.000000 1.000000 -0.000000
vn 0.000000 1.000000 -0.000000
vn 0.000000 1.000000 -0.000000
vn 0.000000 1.000000 -0.000000
vn 0.000000 1.000000 -0.000000
vn 0.000000 1.000000 -0.000000
vn 0.000000 1.000000 0.000000
vn 0.000000 1.000000 0.000000
vn 0.000000 1.000000 0.000000
vn 0.000000 1.000000 0.000000
vn 0.000000 1.000000 0.000000
vn 0.000000 1.000000 -0.000000
vn 0.000000 1.000000 -0.000000
vn 0.000000 1.000000 -0.000000
vn 0.000000 1.000000 0.000000
vn 0.000000 1.000000 0.000000
vn 0.000000 1.000000 -0.000000
vn 0.000000 1.000000 0.000000
vn 0.000000 1.000000 0.000000
vn 0.000000 1.000000 -0.000000
vn 0.000000 1.000000 -0.000000
vn 0.000000 1.000000 0.000000
vn 0.000000 1.000000 -0.000000
vn 0.000000 1.000000 -0.000000
vn 0.000000 1.000000 -0.000000
vn 0.000000 1.000000 -0.000000
vn 0.000000 1.000000 0.000000
vn 0.000000 1.000000 0.000000
vn 0.000000 1.000000 0.000000
vn 0.000000 1.000000 -0.000000
vn 0.000000 1.000000 -0.000000
vn 0.000000 1.000000 0.000000
vn 0.000000 1.000000 0.000000
vn 0.000000 1.000000 -0.000000
vn 0.000000 1.000000 -0.000000
vn 0.000000 1.000000 -0.000000
vn 0.000000 1.000000 0.000000
vn 0.000000 1.000000 0.000000
vn 0.000000 1.000000 -0.000000
vn 0.000000 1.000000 -0.000000
vn 0.000000 1.000000 -0.000000
vn 0.000000 1.000000 -0.000000
vn 0.000000 1.000000 -0.000000
vn 0.000000 1.000000 -0.000000
vn 0.000000 1.000000 -0.000000
vn 0.000000 1.000000 -0.000000
vn 0.000000 1.000000 -0.000000
vn 0.000000 1.000000 -0.000000
vn 0.000000 1.000000 0.000000
vn 0.000000 1.000000 0.000000
vn 0.000000 1.000000 -0.000000
vn 0.000000 1.000000 -0.000000
vn 0.000000 1.000000 0.000000
vn 0.000000 1.000000 0.000000
vn 0.000000 1.000000 0.000000
vn 0.000000 1.000000 0.000000
vn 0.000000 1.000000 0.000000
vn 0.000000 1.000000 0.000000
vn 0.000000 1.000000 0.000000
vn 0.000000 1.000000 0.000000
vn 0.000000 1.000000 0.000000
vn 0.000000 1.000000 0.000000
vn 0.000000 1.000000 -0.000000
vn 0.000000 1.000000 -0.000000
vn 0.000000 1.000000 0.000000
vn 0.000000 1.000000 0.000000
vn 0.000000 1.000000 -0.000000
vn 0.000000 1.000000 -0.000000
vn 0.000000 1.000000 -0.000000
vn 0.000000 1.000000 0.000000
vn 0.000000 1.000000 0.000000
vn 0.000000 1.000000 0.000000
vn 0.000000 1.000000 0.000000
vn 0.000000 1.000000 0.000000
vn 0.000000 1.000000 0.000000
vn 0.000000 1.000000 0.000000
vn 0.000000 1.000000 0.000000
vn 0.000000 1.000000 -0.000000
vn 0.000000 1.000000 -0.000000
vn 0.000000 1.000000 0.000000
vn 0.000000 1.000000 0.000000
vn 0.000000 1.000000 0.000000
vn 0.000000 1.000000 0.000000
vn 0.000000 1.000000 -0.000000
vn 0.000000 1.000000 -0.000000
vn 0.000000 1.000000 0.000000
vn 0.000000 1.000000 0.000000
s 1
g Mitochondria_Opaque_Green_Film
usemtl initialShadingGroup
f 32/1/1 33/2/2 31/3/3
f 18/4/4 19/5/5 17/6/6
f 19/5/5 20/7/7 17/6/6
f 39/8/8 40/9/9 38/10/10
f 2/11/11 3/12/12 1/13/13
f 17/6/6 20/7/7 16/14/14
f 20/7/7 21/15/15 16/14/14
f 21/15/15 22/16/16 16/14/14
f 22/16/16 23/17/17 16/14/14
f 3/12/12 4/18/18 1/13/13
f 4/18/18 5/19/19 1/13/13
f 1/13/13 5/19/19 104/20/20
f 5/19/19 6/21/21 104/20/20
f 6/21/21 7/22/22 104/20/20
f 104/20/20 7/22/22 103/23/23
f 12/24/24 13/25/25 11/26/26
f 11/26/26 13/25/25 10/27/27
f 13/25/25 14/28/28 10/27/27
f 10/27/27 14/28/28 9/29/29
f 14/28/28 15/30/30 9/29/29
f 9/29/29 15/30/30 8/31/31
f 33/2/2 34/32/32 31/3/3
f 34/32/32 35/33/33 31/3/3
f 31/3/3 35/33/33 30/34/34
f 35/33/33 36/35/35 30/34/34
f 30/34/34 36/35/35 29/36/36
f 40/9/9 41/37/37 38/10/10
f 41/37/37 42/38/38 38/10/10
f 38/10/10 42/38/38 37/39/39
f 42/38/38 43/40/40 37/39/39
f 60/41/41 61/42/42 59/43/43
f 61/42/42 62/44/44 59/43/43
f 16/14/14 23/17/17 15/30/30
f 69/45/45 70/46/46 68/47/47
f 68/47/47 70/46/46 67/48/48
f 70/46/46 71/49/49 67/48/48
f 71/49/49 72/50/50 67/48/48
f 72/50/50 73/51/51 67/48/48
f 64/52/52 65/53/53 63/54/54
f 26/55/55 27/56/56 25/57/57
f 25/57/57 27/56/56 24/58/58
f 27/56/56 28/59/59 24/58/58
f 24/58/58 28/59/59 23/17/17
f 23/17/17 28/59/59 15/30/30
f 28/59/59 29/36/36 15/30/30
f 15/30/30 29/36/36 8/31/31
f 29/36/36 36/35/35 8/31/31
f 8/31/31 36/35/35 7/22/22
f 7/22/22 36/35/35 103/23/23
f 36/35/35 37/39/39 103/23/23
f 37/39/39 43/40/40 103/23/23
f 103/23/23 43/40/40 102/60/60
f 43/40/40 44/61/61 102/60/60
f 102/60/60 44/61/61 101/62/62
f 44/61/61 45/63/63 101/62/62
f 101/62/62 45/63/63 100/64/64
f 100/64/64 45/63/63 99/65/65
f 99/65/65 45/63/63 98/66/66
f 98/66/66 45/63/63 97/67/67
f 97/67/67 45/63/63 96/68/68
f 96/68/68 45/63/63 95/69/69
f 95/69/69 45/63/63 94/70/70
f 45/63/63 46/71/71 94/70/70
f 46/71/71 47/72/72 94/70/70
f 94/70/70 47/72/72 93/73/73
f 47/72/72 48/74/74 93/73/73
f 93/73/73 48/74/74 92/75/75
f 48/74/74 49/76/76 92/75/75
f 49/76/76 50/77/77 92/75/75
f 50/77/77 51/78/78 92/75/75
f 51/78/78 52/79/79 92/75/75
f 52/79/79 53/80/80 92/75/75
f 53/80/80 54/81/81 92/75/75
f 92/75/75 54/81/81 91/82/82
f 91/82/82 54/81/81 90/83/83
f 54/81/81 55/84/84 90/83/83
f 90/83/83 55/84/84 89/85/85
f 55/84/84 56/86/86 89/85/85
f 89/85/85 56/86/86 88/87/87
f 88/87/87 56/86/86 87/88/88
f 87/88/88 56/86/86 86/89/89
f 86/89/89 56/86/86 85/90/90
f 85/90/90 56/86/86 84/91/91
f 56/86/86 57/92/92 84/91/91
f 84/91/91 57/92/92 83/93/93
f 57/92/92 58/94/94 83/93/93
f 83/93/93 58/94/94 82/95/95
f 58/94/94 59/43/43 82/95/95
f 82/95/95 59/43/43 81/96/96
f 59/43/43 62/44/44 81/96/96
f 62/44/44 63/54/54 81/96/96
f 63/54/54 65/53/53 81/96/96
f 65/53/53 66/97/97 81/96/96
f 81/96/96 66/97/97 80/98/98
f 80/98/98 66/97/97 79/99/99
f 66/97/97 67/48/48 79/99/99
f 67/48/48 73/51/51 79/99/99
f 73/51/51 74/100/100 79/99/99
f 79/99/99 74/100/100 78/101/101
f 78/101/101 74/100/100 77/102/102
f 77/102/102 74/100/100 76/103/103
f 74/100/100 75/104/104 76/103/103
